<?xml version="1.0" encoding="utf-8"?>
<!-- Generator: Adobe Illustrator 21.0.2, SVG Export Plug-In . SVG Version: 6.00 Build 0)  -->
<svg version="1.1" id="Calque_1" xmlns="http://www.w3.org/2000/svg" xmlns:xlink="http://www.w3.org/1999/xlink" x="0px" y="0px"
	 viewBox="0 0 206.6 178.2" style="enable-background:new 0 0 206.6 178.2;" xml:space="preserve">
<style type="text/css">
	.st0{fill:#FFFFFF;}
</style>
<title>snowflake_4</title>
<path id="rect2830" class="st0" d="M52.9,2.5l-4.1,8.9l12,20.6L39,32l-4.8,9.3l4.2,7.3l32.5,0.9l18.5,31.8H52.7L37.3,54.6H26.7
	l-3.7,7.6l11,19H8.1l-5.2,8.5l5.2,8.9h24.3l-10.5,16.5l4.4,8.8l9.9,0.1l15.5-25.5H89l-17.4,30l-31-0.1l-5.3,9.1l4.8,7h22.1L49.2,167
	l4.8,8.8h10.4l12.2-20.9l9.2,17.3l9.9,0.6l5.1-8.5l-14.6-26l18.1-31.1l16.9,29l-15.7,26.5l5.3,9.1l8.5-0.6l11.1-18.9l12.9,22.2
	l10.1,0.2l5.2-8.9l-12.1-20.9l19.7,0.8l5.5-8.2l-4.8-8.6l-30-0.6l-17.2-29.6h35l14.8,25.5l9.3-0.1l5.2-8.1l-9.8-17.4h23.6l5.8-9.5
	l-5.8-8h-24l10.9-18.7l-5.7-8.7h-8.5l-17,27.5h-34.1l18.3-31.5h29.7l4.6-8l-4.5-8.5L147.5,33l11.8-20.3L153.8,3L144,4l-12,20.6
	L121.1,5.9l-10.5,0.6l-4.2,7.3L121.9,42l-17.5,30.2L85.6,39.8l15-25.5l-4.7-7.9l-9.7-0.4L75.9,23L64.1,2.7L52.9,2.5z"/>
</svg>
