<?xml version="1.0" encoding="utf-8"?>
<!-- Generator: Adobe Illustrator 17.0.2, SVG Export Plug-In . SVG Version: 6.00 Build 0)  -->
<!DOCTYPE svg PUBLIC "-//W3C//DTD SVG 1.1//EN" "http://www.w3.org/Graphics/SVG/1.1/DTD/svg11.dtd">
<svg version="1.1" id="Layer_1" xmlns="http://www.w3.org/2000/svg" xmlns:xlink="http://www.w3.org/1999/xlink" x="0px" y="0px"
	 width="449.241px" height="350.306px" viewBox="0 0 449.241 350.306" enable-background="new 0 0 449.241 350.306"
	 xml:space="preserve">
<path fill="#1D1D1B" d="M249.371,175.009c0,52.569-0.035,105.139,0.039,157.708c0.011,7.535-2.964,13.049-9.825,16.13
	c-7.014,3.15-13.063,0.898-18.562-3.87c-21.366-18.526-42.76-37.021-64.15-55.52c-13.243-11.452-26.433-22.967-39.826-34.242
	c-1.775-1.495-4.604-2.434-6.952-2.447c-30.552-0.165-61.106-0.108-91.659-0.125c-11.755-0.007-18.403-6.614-18.411-18.373
	C0,194.394-0.011,154.517,0.014,114.641c0.007-11.873,6.529-18.335,18.355-18.344c30.666-0.022,61.331-0.095,91.996,0.025
	c3.858,0.015,6.658-1.073,9.589-3.638c19.344-16.931,38.888-33.632,58.356-50.42c14.535-12.533,29.003-25.144,43.597-37.607
	c9.866-8.425,22.809-5.025,26.777,7.027c0.746,2.265,0.671,4.859,0.674,7.302c0.04,42.685,0.033,85.369,0.036,128.054
	c0.001,9.323,0,18.647,0,27.97C249.388,175.009,249.379,175.009,249.371,175.009z"/>
<path fill="#1D1D1B" d="M417.437,176.358c-0.667-44.107-12.019-85.062-34.612-122.82c-4.942-8.259-10.81-15.982-16.513-23.759
	c-4.262-5.813-6.606-11.782-3.306-18.771c5.292-11.206,19.992-12.648,27.876-2.722c10.573,13.31,19.688,27.584,27.629,42.599
	c12.799,24.202,21.621,49.83,26.418,76.751c4.554,25.557,5.554,51.281,2.746,77.175c-3.092,28.505-10.495,55.798-22.227,81.884
	c-8.591,19.103-19.423,36.924-32.107,53.636c-3.965,5.224-8.423,9-15.26,8.928c-12.363-0.13-20.174-13.765-13.587-24.209
	c5.262-8.343,11.552-16.04,16.767-24.409c17.267-27.707,28.434-57.742,32.869-90.124
	C415.682,199.191,416.36,187.747,417.437,176.358z"/>
<path fill="#1D1D1B" d="M357.257,175.32c-0.423-38.18-11.551-72.867-33.9-103.908c-7.147-9.927-4.931-21.017,5.107-25.904
	c7.066-3.441,15.208-1.275,20.238,5.585c15.156,20.669,26.431,43.276,33.181,68.023c11.779,43.186,10.344,85.905-4.716,128.162
	c-6.689,18.768-16.14,36.016-27.589,52.219c-5.55,7.855-15.812,9.67-23.17,4.377c-7.473-5.376-8.973-15.24-3.168-23.3
	c11.992-16.65,20.997-34.743,26.773-54.417C354.882,209.578,357.403,192.641,357.257,175.32z"/>
<path fill="#1D1D1B" d="M326.216,174.116c0.003,28.511-7.236,54.675-21.947,78.734c-4.068,6.654-10.813,9.488-18.165,7.849
	c-6.474-1.443-11.867-7.391-12.02-14.483c-0.073-3.396,0.907-7.236,2.614-10.177c7.75-13.353,13.342-27.412,15.635-42.724
	c3.418-22.826,0.473-44.757-9.433-65.645c-2.536-5.347-5.834-10.342-8.241-15.74c-3.273-7.34-0.224-16.052,6.48-19.934
	c7.364-4.265,16.145-2.818,21.055,4.029c7.515,10.479,12.613,22.198,16.687,34.398C323.655,144.718,325.818,159.423,326.216,174.116
	z"/>
</svg>
