<?xml version="1.0" encoding="utf-8"?>
<!-- Generator: Adobe Illustrator 21.0.2, SVG Export Plug-In . SVG Version: 6.00 Build 0)  -->
<svg version="1.1" id="Layer_1" xmlns="http://www.w3.org/2000/svg" xmlns:xlink="http://www.w3.org/1999/xlink" x="0px" y="0px"
	 viewBox="0 0 449.2 350.3" style="enable-background:new 0 0 449.2 350.3;" xml:space="preserve">
<style type="text/css">
	.st0{fill:#1D1D1B;}
</style>
<path class="st0" d="M249.4,175c0,52.6,0,105.1,0,157.7c0,7.5-3,13-9.8,16.1c-7,3.1-13.1,0.9-18.6-3.9c-21.4-18.5-42.8-37-64.1-55.5
	c-13.2-11.5-26.4-23-39.8-34.2c-1.8-1.5-4.6-2.4-7-2.4c-30.6-0.2-61.1-0.1-91.7-0.1C6.7,252.6,0,246,0,234.3c0-39.9,0-79.8,0-119.6
	c0-11.9,6.5-18.3,18.4-18.3c30.7,0,61.3-0.1,92,0c3.9,0,6.7-1.1,9.6-3.6c19.3-16.9,38.9-33.6,58.4-50.4c14.5-12.5,29-25.1,43.6-37.6
	c9.9-8.4,22.8-5,26.8,7c0.7,2.3,0.7,4.9,0.7,7.3c0,42.7,0,85.4,0,128.1C249.4,156.4,249.4,165.7,249.4,175
	C249.4,175,249.4,175,249.4,175z"/>
<path class="st0" d="M432.6,128.3L401.3,97l-46.9,46.9L307.6,97l-30.8,31l46.4,47.1L276.3,222l31.2,31.2l46.9-46.9l46.9,46.9
	l31.2-31.2l-46.9-46.9L432.6,128.3z"/>
</svg>
